<svg xmlns="http://www.w3.org/2000/svg" xmlns:xlink="http://www.w3.org/1999/xlink" viewBox="0 0 74.48 41.36"><defs><style>.cls-1{fill:#fdc62e;}.cls-2{fill:#70c496;}.cls-3{fill:#2daa68;}.cls-4{fill:#7e431d;}.cls-5{fill:#5e2a1d;}.cls-6{fill:#35160f;}.cls-7{fill:#fdbe10;}.cls-8{fill:url(#linear-gradient);}.cls-9{fill:#277c4d;}.cls-10{fill:#d4d4d4;}.cls-11{fill:url(#linear-gradient-2);}.cls-12{fill:#fff;}.cls-13{fill:url(#linear-gradient-3);}.cls-14{fill:url(#linear-gradient-4);}</style><linearGradient id="linear-gradient" x1="1549.39" y1="495.61" x2="1550" y2="495.61" gradientTransform="matrix(-0.81, -0.59, -0.59, 0.81, 1591.39, 539.37)" gradientUnits="userSpaceOnUse"><stop offset="0" stop-color="#fff"/><stop offset="0.11" stop-color="#fffefa"/><stop offset="0.24" stop-color="#fffaed"/><stop offset="0.38" stop-color="#fff4d6"/><stop offset="0.52" stop-color="#feebb7"/><stop offset="0.66" stop-color="#fee08e"/><stop offset="0.81" stop-color="#fed35d"/><stop offset="0.95" stop-color="#fdc324"/><stop offset="1" stop-color="#fdbe10"/></linearGradient><linearGradient id="linear-gradient-2" x1="1536.98" y1="483.54" x2="1552.33" y2="483.54" gradientTransform="matrix(0, -1, -1, 0, 541.24, 1567)" gradientUnits="userSpaceOnUse"><stop offset="0.01" stop-color="#a8a8a8"/><stop offset="0.42" stop-color="#fff"/><stop offset="0.47" stop-color="#fafafa"/><stop offset="0.54" stop-color="#ededed"/><stop offset="0.61" stop-color="#d6d6d6"/><stop offset="0.68" stop-color="#b6b6b6"/><stop offset="0.75" stop-color="#8d8d8d"/><stop offset="0.82" stop-color="#606060"/><stop offset="1" stop-color="#303030"/></linearGradient><linearGradient id="linear-gradient-3" x1="1535.26" y1="490.68" x2="1552.6" y2="493.27" xlink:href="#linear-gradient"/><linearGradient id="linear-gradient-4" x1="1577.52" y1="523.64" x2="1578.41" y2="523.64" gradientTransform="matrix(-0.78, -0.62, -0.62, 0.78, 1611.86, 603.91)" xlink:href="#linear-gradient"/></defs><title>logo</title><g id="Layer_2" data-name="Layer 2"><g id="Layer_1-2" data-name="Layer 1"><path class="cls-1" d="M15.55,33.75l-.12,0a.67.67,0,0,1,.31,0,4.5,4.5,0,0,0-2.48-.18,6.3,6.3,0,0,0-2.37.85c-.46.12-.74.36-.69.5s.37.15.78,0l.29,0c.7,0,1.55,0,2.42.07l-.53-.08a6.77,6.77,0,0,0,.78,0l-.1-.07a8.23,8.23,0,0,0,1.24.1c.34,0,.53,0,.58-.17a1.91,1.91,0,0,0,.28-.4.34.34,0,0,0,0-.22.29.29,0,0,0-.17-.23Z"/><path class="cls-1" d="M13.86,32.87a7.62,7.62,0,0,1,1.7.34l.08.06v-.22h0c-.49.12-1.35.17-2.19.3l-.29.06a.39.39,0,0,0-.25.15c0,.11.23.18.6.16h.43l1.59.12a2,2,0,0,0,.51,0,1.08,1.08,0,0,0,.35-.1c.11,0,.13-.17.17-.26s0-.35-.37-.44-.87,0-.91.12l-.25,0,.21,0a4.58,4.58,0,0,1-1,.2l-.55.06.34.33.27,0-.06,0a6.3,6.3,0,0,1,1.46-.17l.52,0c.13,0,.17-.12.06-.21a1,1,0,0,0-.19-.13l.09.07a7.4,7.4,0,0,0-2.13-.36.7.7,0,0,0-.35,0C13.66,32.83,13.72,32.86,13.86,32.87Z"/><path class="cls-1" d="M16.36,33a.73.73,0,0,0,.23.13h.06L16.53,33C16.44,32.94,16.37,33,16.36,33Z"/><polygon class="cls-1" points="16.65 33.12 16.7 33.17 16.68 33.12 16.66 33.12 16.65 33.12"/><path class="cls-1" d="M32.42,30.11a22.89,22.89,0,0,1,2.74.69,10.13,10.13,0,0,1,1.67.71,6.34,6.34,0,0,1,1,.64,4.49,4.49,0,0,1,.9,1A3.4,3.4,0,0,1,39.3,35v.25c0,.11,0,.28,0,.37a3.69,3.69,0,0,1-.42,1.22,4.67,4.67,0,0,1-.74,1,6.25,6.25,0,0,1-.74.63l-.43.3h0l-.4-.33-.31-.26L35.93,38l-.23-.17-.19-.14-.16-.11-.15-.09a1.28,1.28,0,0,0-.53-.23,1,1,0,0,0,.46-.31A7.3,7.3,0,0,0,36,35.83l.24-.39.12-.19,0,0v0c.07-.13-.18.28-.31.49a7,7,0,0,1-.86,1.14,1.16,1.16,0,0,1-.51.38,1,1,0,0,1,.43.17c.16.1.38.24.66.45L36,38l.29.23c.15.13.55.45.69.58s.2-.13.41-.29a6.74,6.74,0,0,0,.74-.62,4.48,4.48,0,0,0,.76-1,3.73,3.73,0,0,0,.45-1.23l0-.16,0-.2v-.27a3.63,3.63,0,0,0-.06-.64,3.87,3.87,0,0,0-.53-1.29,5.27,5.27,0,0,0-1.87-1.68,10.14,10.14,0,0,0-1.69-.74,22.37,22.37,0,0,0-2.76-.7.44.44,0,0,0-.24,0S32.32,30.09,32.42,30.11Z"/><path class="cls-1" d="M48.42,35.44c-.07,0-.07,0,0,.05a.76.76,0,0,0,.26,0c.06,0,.06,0,0,0A.72.72,0,0,0,48.42,35.44Z"/><path class="cls-1" d="M47.93,37.15c-.41.07-.81.14-1.15.23l-.2,0s0,.07-.19.1c-1.29.26-2.63.55-4,.82-.27.06-.68.17-1.08.29L40,39a18.51,18.51,0,0,1-3.09.65.67.67,0,0,1-.19.09,4,4,0,0,1-1.93,0l-.18,0-.22-.07-.07,0,0,0-.13-.05-.41-.17A4.08,4.08,0,0,1,33.1,39a2.64,2.64,0,0,1-.44-.35,2.08,2.08,0,0,1-.51-.75,1.77,1.77,0,0,1-.06-1.11,1.89,1.89,0,0,1,.35-.7,3.13,3.13,0,0,1,.54-.53l.3-.21.33-.22.13-.09c-.07-.05.23.11.3.13s.1,0,0,0,0,0-.08,0,0,0,0,0l0,0h0l0,0h.27c.19,0,.15-.08-.2.15l-.17.12h0l-.14,0-.5-.12c-.41-.08-.93-.15-1.48-.22.07,0,.1.07.09.1s-.3.08-.6,0l-.41-.06.59.13.61.15.15,0a8.87,8.87,0,0,1,1.06.29c.13,0,.22.09.23.09s.07-.07.1-.11l.15-.13.13-.11.12-.09a1.92,1.92,0,0,1,.35-.22c.08,0,.1,0,.06,0l-.3,0h-.07c0-.08,0,0,0,0v0l0,0,0,0,0,0s.08,0,.1,0l-.08,0a2.83,2.83,0,0,1-.45-.22l-.19-.11-.1-.07s0,0,0,0l0,0a.61.61,0,0,1-.14.13l-.36.29a3.54,3.54,0,0,0-.35.31c-.08.08-.17.17-.28.3a3.27,3.27,0,0,0-.33.54,2.1,2.1,0,0,0,.1,1.94,2.73,2.73,0,0,0,.91.93,4.31,4.31,0,0,0,1,.46l.33.11.45.12a7,7,0,0,0,1.62.14,8.78,8.78,0,0,0,1.23-.11,16.93,16.93,0,0,0,2-.43c.6-.17,1.15-.34,1.67-.51s1-.32,1.33-.4l.11,0a.58.58,0,0,1,.26,0c.05,0,0,0,0,.06l-.31.08-.69.28-.86.36c-.61.24-1.25.5-2,.74a10.32,10.32,0,0,1-1.23.33,8.53,8.53,0,0,1-1.61.21,8.32,8.32,0,0,1-1.09,0c-.2,0-.42-.06-.65-.11l-.41-.1-.06,0-.13,0-.53-.18a4.92,4.92,0,0,1-.85-.42,4,4,0,0,1-.7-.57l-.2-.24a2,2,0,0,1-.21-.3,2.58,2.58,0,0,1-.19-.37,2.16,2.16,0,0,1-.14-.43,2.51,2.51,0,0,1-.05-.9,1.67,1.67,0,0,1,.08-.4L31,36.3l.06-.15a3.12,3.12,0,0,1,.54-.85,4.65,4.65,0,0,1,.45-.45l.27-.23.27-.23.09-.1h0l.07,0,.14.11.24.16.19.14a5.65,5.65,0,0,0,.54.31,1.67,1.67,0,0,0,.26.1H34l0,0h0l0,0,0,0,0,0h0l0,0h0a2.32,2.32,0,0,0,.38,0,1.36,1.36,0,0,0-.48.29,5.17,5.17,0,0,0-1,1,.5.5,0,0,0-.09.11h-.14l-.82-.13c-.34-.05-.74-.1-1.16-.14h-.18l-.06,0-.13,0-.61.15a14.24,14.24,0,0,0-2.12.65c-.81.3-1.67.66-2.63,1.05-.48.19-1,.39-1.55.59s-1.1.37-1.64.54c-1.08.34-2.16.63-3.29.91-1.52.36-3.05.66-4.65.88-.8.11-1.62.2-2.48.25a22.6,22.6,0,0,1-2.75,0A13.86,13.86,0,0,1,5,40.77a8.81,8.81,0,0,1-2.37-1.08,6.54,6.54,0,0,1-1.22-1,5.48,5.48,0,0,1-.94-1.37A5,5,0,0,1,0,34.61a5.62,5.62,0,0,1,.19-1c.05-.16.09-.29.15-.45l.09-.24.06-.15a6.79,6.79,0,0,1,1.2-1.85,8.89,8.89,0,0,1,1.44-1.28,9.59,9.59,0,0,1,2.11-1.2,10.66,10.66,0,0,1,1.81-.58,3.58,3.58,0,0,1,2.08,0C9.45,28,9,28.37,8,28.85l.61-.18c.33-.07.66-.14,1-.19a6.92,6.92,0,0,1,2.26-.09l.71.1c.47.13,1.06.25,1.63.41a5.8,5.8,0,0,1,1.43.54l-.17.13.16.05a1.69,1.69,0,0,1,1,.48l-.09.16a2,2,0,0,1-.85.44c0,.07-.05.14-.15.2.3.19.4.39.14.56.17.06.13.13-.08.16h-.25l.24.13.26.05a5.09,5.09,0,0,1,.77.19,1.12,1.12,0,0,1,.38.25c.13.37.1.37,0,.47l-.06,0a1.44,1.44,0,0,1,.2.16.26.26,0,0,1,.05.09c0,.06,0,.06,0,.1l0,0c-.13,0-.13,0-.15,0h-.07l-.17,0a1.21,1.21,0,0,0-.15-.25l-.08.05,0-.1v.08l-.11-.07.12.1A1.56,1.56,0,0,0,16,32.8a1.33,1.33,0,0,0-.32,0,.18.18,0,0,1,0,.05,8.3,8.3,0,0,0-.91-.13.28.28,0,0,1-.11,0,.74.74,0,0,1-.24,0H14.1l-.22,0h0c-.15,0-.37.08-.93.23l-.44,0h.13c.09,0,0,.09.07.09.55,0,1.11,0,1.65,0a9.34,9.34,0,0,1,1.47.2c.15,0,.25.08.25.14s-.1.08-.23.07a28.84,28.84,0,0,0-3.25.31,21.08,21.08,0,0,0-3.24.73,3.67,3.67,0,0,0-.77.43H8.48l.06,0h0l.07,0h.06a3.5,3.5,0,0,1,1-.44,13.69,13.69,0,0,1,1.73-.37,10.79,10.79,0,0,1,2-.06c.16,0,.28,0,.27.07s-.16.1-.32.11a18.45,18.45,0,0,0-3,.68c-.41.14-.74.27-.92.32l-.12,0h0l-.11-.06a5.34,5.34,0,0,0-.48-.24L8.49,35l-.07,0H8.34l.83.19s-.06.14-.05.1,0,0,0,0h0l-.15,0-.21,0a5.89,5.89,0,0,0-1.19-.05h0l.47,0a4.27,4.27,0,0,0-.65,0l-.24,0h0c-.09,0,0,0,.13-.09a3,3,0,0,0,.62-.69,2.68,2.68,0,0,0,.18-.28L8.15,34l0-.06h0l.05,0a1.43,1.43,0,0,0,.27.07c.5.11,1.31.16,2.07.23h.18c.66-.13,1.34-.29,2.17-.41l-.84,0c.59-.12,1.18-.24,1.83-.34a27.61,27.61,0,0,1,4.87-.43c.42-.12.84-.24,1.24-.37l1.17-.41,2.63-1a30.82,30.82,0,0,1,3.11-1,13.25,13.25,0,0,1,4.19-.47,1.67,1.67,0,0,1,.67.14s-.2,0-.52,0-.57,0-.85,0-.57,0-.82,0a12.45,12.45,0,0,0-1.46.22A19.59,19.59,0,0,0,25.7,31c-1.48.51-2.77,1.07-4,1.54,1.05-.34,2.16-.74,3.38-1.12a20.25,20.25,0,0,1,4.24-.9c.21,0,.43,0,.66,0h.71c.23,0,.47,0,.7.06l.62.11a24.18,24.18,0,0,1,2.58.56,10.2,10.2,0,0,1,1.47.53,5.72,5.72,0,0,1,1.68,1.11,3.68,3.68,0,0,1,.71,1,3.23,3.23,0,0,1,.33,1.13v.51c0,.13,0,.21,0,.3L38.7,36A3.46,3.46,0,0,1,38.22,37a5.62,5.62,0,0,1-1.32,1.32l-.21.16,0,0h0l-.34-.28L36,38a1.3,1.3,0,0,0-.23-.18,3.63,3.63,0,0,0-1-.62c-.16,0-.07,0,.12-.11a2.73,2.73,0,0,0,.62-.62l.18-.24c.06-.09.14-.18.2-.28l.2-.3.1-.16s0,0,0,0h.06c-.8,1.54-.22.43-.39.77h0l0,0,0,0v0s0,0,0-.08L36,36a2.66,2.66,0,0,0,.11-.39c.05-.21,0-.14.05-.15l.13,0a8.71,8.71,0,0,0,1.22-.22c.49-.12,1-.28,1.64-.45l1-.27a11.06,11.06,0,0,1,1.24-.29l.15,0c1.77-.32,3.62-.68,5.53-.91A42.06,42.06,0,0,1,52.9,33c.53,0,1,.09,1.07.2s-.33.19-.86.19a55.48,55.48,0,0,0-5.9.39c-2,.24-3.84.59-5.61.89-.76.13-1.26.28-1.78.41l-1.43.39c-.45.11-.88.21-1.27.28a5.18,5.18,0,0,1-.95.11h-.11v0L36,36a.35.35,0,0,0,0,.13v.07l-.07,0,0,0h0c-.21.38.27-.52.22-.42h0l-.06,0h0l0,.05-.3.43a4.62,4.62,0,0,1-.53.62,1.35,1.35,0,0,1-.38.27c-.08,0-.09,0,0,0a5.08,5.08,0,0,1,1.61,1.07l.19-.15.37-.28a4.87,4.87,0,0,0,.88-.88,3.18,3.18,0,0,0,.58-1.33l0-.17c0-.07,0-.15,0-.22V35a2.77,2.77,0,0,0-.14-.73,3.19,3.19,0,0,0-.83-1.3,5.63,5.63,0,0,0-1.79-1.13,11.87,11.87,0,0,0-1.56-.52.09.09,0,0,1,0,.05c0,.05-.14.08-.31.08a11.52,11.52,0,0,1,1.72.57,5.16,5.16,0,0,1,1.88,1.29,2.91,2.91,0,0,1,.78,1.66v.19h0v.2a1.54,1.54,0,0,1,0,.24l0,.22a3.13,3.13,0,0,1-.33.85,4.48,4.48,0,0,1-1.06,1.19l-.42.33,0,0h0l-.06,0L36,38c-.3-.23-.51-.37-.69-.49a2.46,2.46,0,0,0-.4-.22c-.21-.08-.26,0-.15-.06a1.69,1.69,0,0,0,.54-.43c.11-.13.24-.28.37-.46l.2-.28.08-.13h0l.08,0h0c.16-.31-.23.42-.19.34h0l.1,0s0-.11,0-.17L36,36s0,0,0,0h.17a8.48,8.48,0,0,0,1.51-.16c.59-.09,1.19-.21,1.83-.33l1-.19c.35-.05.71-.11,1.16-.15L43.44,35a56.79,56.79,0,0,1,7.3-.81.54.54,0,0,1,.24,0s0,0-.12,0c-1.71.15-3.46.36-5.17.64.28,0,.46.11.45.2s-.2.2-.51.3l1.16-.11c.25,0,.44,0,.44,0s-.18.1-.41.12c-1.59.14-3.15.35-4.68.55l-.26,0a12,12,0,0,0-1.39.31l-1.27.33a16,16,0,0,1-2.44.5,1.73,1.73,0,0,1,.53.17h0q.4-.06.81-.15c.61-.15,1.21-.32,1.83-.5a18.84,18.84,0,0,1,2-.5c2-.34,4-.69,6.06-.87a45.38,45.38,0,0,1,6.28-.09c.11,0,.2,0,.2.05s-.09,0-.18,0a44.42,44.42,0,0,0-5,0h0c.07,0,.08,0,0,0a.76.76,0,0,1-.26,0c-.08,0-.08,0,0-.06a61.13,61.13,0,0,0-7.07.95,19,19,0,0,0-2,.5c.64-.16,1.27-.33,2-.44,2.07-.29,4.18-.59,6.32-.69l.92-.14a.53.53,0,0,1,.23,0s0,0-.13.05l-.25,0c.53,0,.94.07.94.18s-.47.22-1,.24c-1.46.1-2.91.26-4.34.45l-.46.08-.46.12a54.14,54.14,0,0,1,6.72-.43c.19,0,.35,0,.36.07s-.15.08-.34.08c-1.38.09-2.76.23-4.13.42s-2.74.43-4.15.65c-.48.08-1,.23-1.59.38s-1.13.3-1.72.43a13.51,13.51,0,0,1-2.1.58,6.84,6.84,0,0,1-1.33.09,5.24,5.24,0,0,1-.82-.12,3.54,3.54,0,0,1-.71-.21,5.21,5.21,0,0,0,.68.28,5.61,5.61,0,0,0,1.44.23,7,7,0,0,0,1.16-.07,13.88,13.88,0,0,0,1.92-.38c.59-.16,1.14-.33,1.67-.5s1-.33,1.46-.42c1.71-.35,3.37-.72,5.15-.91a.32.32,0,0,1,.21,0s-.06,0-.16.06c-1.79.21-3.4.59-5.18.94-.15,0-.33.08-.51.14-.73.2-1.52.46-2.32.69a17.82,17.82,0,0,1-2.66.59,15.61,15.61,0,0,0,3.08-.59l1.31-.37c.41-.12.83-.23,1.14-.29,1.3-.24,2.57-.48,3.85-.66a1.16,1.16,0,0,1,.36,0,.14.14,0,0,1,.07,0c.38-.09.8-.17,1.22-.24a.61.61,0,0,1,.24,0S48,37.13,47.93,37.15ZM8.73,33.23H8.8l-.22.06H8.2A4.89,4.89,0,0,1,8.73,33.23Zm4-1.67h0l.23.06Zm11.21.35c-.81.29-1.58.57-2.32.82-.37.12-.73.23-1.08.32s-.71.18-1.09.26l1-.34C21.49,32.69,22.66,32.29,23.91,31.91ZM11.58,33c-.39,0-.71,0-1-.07l-.71.24a9.56,9.56,0,0,0-1.68.7c.1,0,0,.07-.06.11L8,34.09a6.43,6.43,0,0,1,1.68-.7A10.13,10.13,0,0,1,11.58,33Zm4.73-.37,0,0-.13.07Zm.21-.1-.07,0S16.51,32.48,16.52,32.52Zm-.76-.25a.41.41,0,0,0,.11.06Zm-.43-2.61-.51.42.55-.4Z"/><path class="cls-2" d="M59.37,13.92a3.19,3.19,0,0,0,1.3.1,5.67,5.67,0,0,0,2.87-1.43,9.5,9.5,0,0,0,1.67-2.27C67.73,5.61,74,0,74,0s.19.15.49.44c.39,7.25-2.66,7.8-6.55,11.84A6.53,6.53,0,0,0,65.85,18c.21,1.17,1.43,1.93,1.68,3.12a4,4,0,0,1-.63,3.23l-1.56,2.14a4,4,0,0,1-5.64.82l-6.31-4.59a4,4,0,0,1-1-5.61L54,15a4,4,0,0,1,2.65-1.57A6.8,6.8,0,0,1,59.37,13.92Z"/><path class="cls-3" d="M58.86,13.86a3,3,0,0,0,1.27.07A5.9,5.9,0,0,0,63,12.42a10.44,10.44,0,0,0,1.7-2.31c2.72-5,2.39-8,9.32-10.1.18,7.22-2.82,7.85-6.74,12a6.89,6.89,0,0,0-2.16,5.77c.17,1.16,1.34,1.88,1.56,3.06a4.18,4.18,0,0,1-.72,3.23l-1.58,2.19a4,4,0,0,1-5.54,1l-6.06-4.4A4,4,0,0,1,52,17.24l1.58-2.18a4.24,4.24,0,0,1,2.64-1.65A6.38,6.38,0,0,1,58.86,13.86Z"/><path class="cls-4" d="M64,28.16c-.1-.28-3.69,7.78-3.69,7.78A35.63,35.63,0,0,1,45.6,24.82s4.87-4.05,6.36-6.25S64,28.16,64,28.16Z"/><path class="cls-5" d="M63.19,27.83c-.1-.28-4.41,7.43-4.41,7.43a32.17,32.17,0,0,1-14-10.68s4.89-4.09,6.4-6.3S63.19,27.83,63.19,27.83Z"/><path class="cls-6" d="M62.72,26.35s-4.19,7-4.64,7.89C58.08,34.24,61.44,27.48,62.72,26.35Z"/><path class="cls-6" d="M58.61,23.5S53.73,30,53.18,30.87C53.18,30.87,57.21,24.49,58.61,23.5Z"/><path class="cls-6" d="M57.43,22.49S52.55,29,52,29.86C52,29.86,56,23.48,57.43,22.49Z"/><path class="cls-6" d="M55,20.68s-5.47,6-6.09,6.83C49,27.51,53.56,21.54,55,20.68Z"/><path class="cls-6" d="M54.26,20.26s-5.47,6-6.1,6.83C48.16,27.09,52.77,21.12,54.26,20.26Z"/><path class="cls-6" d="M54.73,18.73s-6,5.46-6.73,6.2C48,24.93,53.17,19.44,54.73,18.73Z"/><path class="cls-7" d="M46.2,28.15a1.27,1.27,0,0,0,.28-1.07c0-.4.78.57.78.57s-.54.11-.45.83c0,.23.34.59,0,.95a.65.65,0,0,1-1,.12.66.66,0,0,1-.09-.74A6.3,6.3,0,0,1,46.2,28.15Z"/><path class="cls-8" d="M46.77,28.75a.5.5,0,0,1,0,.62.67.67,0,0,1-.83.1S46.82,29.59,46.77,28.75Z"/><path class="cls-9" d="M51.26,18.92A4,4,0,0,1,52,17.24l1.58-2.18a4.24,4.24,0,0,1,2.64-1.65,6.38,6.38,0,0,1,2.66.45,3,3,0,0,0,1.27.07l.44-.11c-.19,2.08-.32,8.29,4.8,11l-1,1.4A4.17,4.17,0,0,1,63,27.42l-6.41-4.89Z"/><polygon class="cls-10" points="50.92 20.25 62.55 28.71 63.77 28.67 66.38 25.08 65.16 25.13 53.52 16.67 50.92 20.25"/><rect class="cls-11" x="55.43" y="14.73" width="4.43" height="15.35" transform="translate(5.63 55.86) rotate(-53.99)"/><path class="cls-9" d="M69.62,3.93a1.38,1.38,0,1,0,2.23,1.62,1.38,1.38,0,0,0-2.23-1.62Z"/><path class="cls-12" d="M70.1,4.13a1.17,1.17,0,1,0,1.63-.26A1.16,1.16,0,0,0,70.1,4.13Z"/><path class="cls-7" d="M45.49,23.7c1.91-1.56,1.8,0,4.52,1.42s2.15,3,3.41,3.49,2.42,2.92,4.76,2.92A4.36,4.36,0,0,1,61.63,33s0,2.34-1.14,3-3.75-1.19-6.68-2.54c-.81-.37-2.67-1.91-3-1.57s.08,2-.31,2.58a.91.91,0,0,1-1.37.11,1.44,1.44,0,0,1-.29-1.43,3.75,3.75,0,0,1,1.24-1.9c.34-.27-1.23-1.5-1.77-2-1.15-1.06-2-2-2.4-2.23C45,26.38,43.58,25.25,45.49,23.7Z"/><path class="cls-13" d="M60.15,35.56a3,3,0,0,0,.35-1.93c-.28-.85-1-1.43-3.28-1.43s-3.34-2.28-4.54-2.78-.67-2-3.25-3.32c-2-1-2.37-2.12-3.25-2,1.35-.84,1.49.48,3.83,1.71,2.58,1.36,2.05,2.82,3.25,3.32S55.56,32,57.79,32s3,.58,3.29,1.43a3,3,0,0,1-.35,1.93,1.61,1.61,0,0,1-.38.31,1.12,1.12,0,0,1-.38.11Z"/><path class="cls-14" d="M50.43,33.68a.74.74,0,0,1-.16.85.92.92,0,0,1-1.08-.05S50.33,34.76,50.43,33.68Z"/></g></g></svg>